<svg width="796" height="442" viewBox="0 0 796 442" fill="none" xmlns="http://www.w3.org/2000/svg">
<g clip-path="url(#clip0_25_131)">
<path opacity="0.6" d="M631 647C838.659 647 1007 487.166 1007 290C1007 92.8344 838.659 -67 631 -67C423.341 -67 255 92.8344 255 290C255 487.166 423.341 647 631 647Z" fill="url(#paint0_linear_25_131)" fill-opacity="0.7"/>
<path d="M217.533 572.76C337.673 572.76 435.066 462.545 435.066 326.588C435.066 190.631 337.673 80.4163 217.533 80.4163C97.3928 80.4163 0 190.631 0 326.588C0 462.545 97.3928 572.76 217.533 572.76Z" fill="url(#paint1_linear_25_131)" fill-opacity="0.9"/>
</g>
<defs>
<linearGradient id="paint0_linear_25_131" x1="455.433" y1="148.104" x2="662.336" y2="442.928" gradientUnits="userSpaceOnUse">
<stop stop-color="#104746" stop-opacity="0.5"/>
<stop offset="1" stop-color="#2ABDBB" stop-opacity="0"/>
</linearGradient>
<linearGradient id="paint1_linear_25_131" x1="177.477" y1="438.824" x2="313.681" y2="31.4552" gradientUnits="userSpaceOnUse">
<stop stop-color="#104746" stop-opacity="0.35"/>
<stop offset="1" stop-color="#104746" stop-opacity="0.1"/>
</linearGradient>
<clipPath id="clip0_25_131">
<rect width="796" height="442" fill="white"/>
</clipPath>
</defs>
</svg>
