<?xml version="1.0" standalone="no"?>
<!DOCTYPE svg PUBLIC "-//W3C//DTD SVG 20010904//EN"
 "http://www.w3.org/TR/2001/REC-SVG-20010904/DTD/svg10.dtd">
<svg version="1.0" xmlns="http://www.w3.org/2000/svg"
 width="666.000000pt" height="285.000000pt" viewBox="0 0 666.000000 285.000000"
 preserveAspectRatio="xMidYMid meet">
<metadata>
Created by DEREPIERRE Alexandre
</metadata>
<g transform="translate(0.000000,285.000000) scale(0.100000,-0.100000)"
fill="#a5a5a5" stroke="none">
<path d="M1205 1876 c-111 -51 -224 -159 -271 -258 -16 -35 -34 -50 -34 -29 0
29 42 135 69 177 l33 49 -61 -63 c-34 -34 -72 -84 -85 -110 -87 -172 -78 -377
24 -529 57 -86 73 -95 44 -26 -17 42 -23 77 -23 128 0 71 25 166 45 172 7 2
15 -27 22 -76 14 -96 52 -215 95 -295 43 -80 57 -83 57 -13 0 102 36 201 203
562 68 149 120 282 114 298 -2 8 -155 -164 -264 -299 l-32 -39 0 32 c-1 47 26
169 50 222 11 25 33 63 50 84 35 43 32 44 -36 13z"/>
<path d="M1507 1783 c-8 -99 -48 -214 -147 -428 -132 -286 -188 -425 -170
-425 9 0 165 178 238 272 25 32 49 58 54 58 12 0 1 -76 -23 -170 -20 -76 -55
-146 -83 -170 -30 -24 -16 -29 29 -10 112 48 215 140 276 247 17 29 33 53 36
53 3 0 3 -18 -1 -41 -7 -45 -35 -105 -73 -159 -14 -20 3 -7 40 31 69 71 107
139 132 234 40 156 -4 337 -110 460 l-35 40 27 -60 c22 -48 27 -75 27 -135 0
-73 -26 -180 -44 -180 -4 0 -13 30 -19 68 -19 109 -49 210 -87 288 -52 105
-60 108 -67 27z"/>
<path d="M2162 1618 c3 -7 35 -114 73 -238 71 -238 84 -270 114 -270 30 0 47
29 95 169 26 73 49 138 53 144 8 14 14 0 68 -153 26 -74 53 -141 60 -149 8 -8
23 -11 38 -7 21 5 30 19 51 83 36 111 126 412 126 423 0 6 -20 10 -44 10 l-45
0 -26 -87 c-50 -168 -69 -223 -76 -223 -3 0 -28 62 -54 138 -26 75 -56 144
-66 154 -44 38 -69 0 -140 -219 -13 -40 -28 -71 -33 -70 -5 2 -30 70 -55 153
l-46 149 -49 3 c-37 2 -47 0 -44 -10z"/>
<path d="M3023 1622 c-16 -10 -223 -448 -223 -471 0 -22 19 -41 42 -41 10 0
81 32 158 70 77 39 142 70 144 70 2 0 19 -31 37 -70 l32 -70 48 0 c27 0 49 2
49 5 0 20 -225 484 -242 498 -23 19 -28 20 -45 9z m58 -228 c17 -36 29 -67 27
-69 -13 -11 -151 -75 -158 -73 -9 3 84 208 95 208 3 0 20 -30 36 -66z"/>
<path d="M3380 1370 l0 -260 45 0 45 0 0 114 c0 88 3 116 15 126 32 27 63 2
146 -115 45 -64 86 -118 91 -121 19 -12 58 6 64 30 4 19 -12 49 -80 144 -47
66 -92 122 -102 126 -12 5 8 23 77 74 103 74 118 99 75 127 -29 19 -20 24
-162 -77 -62 -43 -115 -78 -118 -78 -3 0 -6 38 -6 85 l0 85 -45 0 -45 0 0
-260z"/>
<path d="M4073 1613 c-30 -27 -225 -451 -218 -474 13 -40 47 -33 194 40 77 39
143 71 146 71 2 0 21 -31 40 -70 l35 -70 50 0 49 0 -49 103 c-26 56 -78 167
-115 247 -60 131 -85 170 -106 170 -4 0 -16 -8 -26 -17z m61 -218 c16 -36 27
-67 25 -69 -12 -11 -152 -77 -158 -74 -9 3 87 208 97 208 4 0 20 -30 36 -65z"/>
<path d="M4458 1619 c-16 -9 -18 -32 -18 -259 l0 -250 45 0 46 0 -3 160 c-2
88 0 160 4 160 4 0 62 -72 128 -160 94 -125 126 -160 143 -160 45 0 47 10 47
272 l0 248 -45 0 -45 0 -2 -167 -3 -168 -122 161 c-100 133 -139 177 -156 174
-1 0 -10 -5 -19 -11z"/>
<path d="M4977 1624 c-4 -4 -7 -121 -7 -261 l0 -253 50 0 50 0 -2 258 -3 257
-40 3 c-23 2 -44 0 -48 -4z"/>
<path d="M5326 1617 c-11 -8 -43 -98 -87 -242 -38 -127 -72 -238 -75 -248 -5
-16 0 -18 43 -15 l48 3 42 135 c23 74 42 143 43 153 1 44 25 3 61 -103 51
-150 69 -184 96 -188 30 -4 45 21 99 174 25 74 50 134 54 134 4 0 10 -12 14
-27 3 -16 23 -84 44 -153 l39 -125 46 -3 c26 -2 47 1 47 6 0 10 -56 196 -115
382 -35 111 -57 140 -92 122 -10 -6 -24 -25 -30 -44 -7 -18 -31 -86 -54 -150
-22 -65 -44 -118 -48 -118 -4 0 -30 64 -57 142 -44 130 -69 178 -92 178 -5 0
-16 -6 -26 -13z"/>
</g>
</svg>
